<svg width="142" height="38" viewBox="0 0 142 38" fill="none" xmlns="http://www.w3.org/2000/svg">
<path d="M6.65747 32V31.038H2.40646C4.82447 29.127 6.61846 27.515 6.61846 25.747C6.61846 24.018 5.14947 23.199 3.70647 23.199C2.48447 23.199 1.35346 23.693 0.690465 24.564L1.35346 25.253C1.86046 24.603 2.66647 24.161 3.70647 24.161C4.60346 24.161 5.51347 24.642 5.51347 25.747C5.51347 27.242 3.82346 28.685 0.703465 31.142V32H6.65747ZM8.30704 27.684C8.30704 30.037 9.23004 32.156 11.648 32.156C13.546 32.156 14.69 30.83 14.69 29.322C14.69 27.476 13.416 26.553 11.856 26.553C10.738 26.553 9.77604 27.307 9.39904 27.905C9.38604 27.788 9.38604 27.684 9.38604 27.567C9.38604 25.864 10.153 24.161 11.83 24.161C12.74 24.161 13.247 24.525 13.689 25.045L14.235 24.239C13.702 23.628 12.948 23.199 11.83 23.199C9.39904 23.199 8.30704 25.331 8.30704 27.684ZM13.598 29.361C13.598 30.193 12.948 31.194 11.609 31.194C10.101 31.194 9.52904 29.868 9.42504 28.789C9.90604 28.022 10.738 27.489 11.596 27.489C12.714 27.489 13.598 28.087 13.598 29.361ZM16.0007 29.803C16.0007 31.285 17.3917 32.156 19.1077 32.156C20.8107 32.156 22.2147 31.272 22.2147 29.803C22.2147 28.646 21.2267 27.853 20.1477 27.528C21.1487 27.242 22.0847 26.592 22.0847 25.448C22.0847 23.888 20.5377 23.199 19.1077 23.199C17.6647 23.199 16.1437 23.888 16.1437 25.448C16.1437 26.592 17.0667 27.242 18.0677 27.528C16.9887 27.853 16.0007 28.646 16.0007 29.803ZM20.9927 25.591C20.9927 26.644 19.6407 26.995 19.1077 27.086C18.5877 26.995 17.2227 26.644 17.2227 25.591C17.2227 24.694 18.0547 24.161 19.1077 24.161C20.1477 24.161 20.9927 24.694 20.9927 25.591ZM21.1227 29.686C21.1227 30.622 20.1737 31.194 19.1077 31.194C18.0287 31.194 17.0797 30.622 17.0797 29.686C17.0797 28.555 18.5747 28.074 19.1077 28.009C19.6407 28.074 21.1227 28.555 21.1227 29.686ZM30.4704 32L26.5444 27.45L30.1584 23.329H28.8064L24.9714 27.814V23.329H23.8924V32H24.9714V29.088L25.8424 28.1L29.1314 32H30.4704ZM35.882 27.957V27.281H33.386V24.59H32.645V27.281H30.149V27.957H32.645V30.726H33.386V27.957H35.882ZM48.0478 32L44.5508 23.329H43.2118L39.7278 32H40.9238L41.6908 30.076H46.0848L46.8518 32H48.0478ZM45.7598 29.114H42.0028L43.8878 24.291L45.7598 29.114ZM50.1175 31.051C50.6245 31.753 51.3785 32.156 52.2365 32.156C53.8875 32.156 55.0315 30.882 55.0315 28.854C55.0315 26.813 53.8875 25.565 52.2365 25.565C51.3525 25.565 50.5725 26.02 50.1175 26.657V25.721H49.1425V34.392H50.1175V31.051ZM54.0045 28.854C54.0045 30.245 53.2505 31.285 51.9895 31.285C51.2225 31.285 50.4555 30.817 50.1175 30.271V27.437C50.4555 26.891 51.2225 26.436 51.9895 26.436C53.2505 26.436 54.0045 27.463 54.0045 28.854ZM57.5823 31.051C58.0893 31.753 58.8433 32.156 59.7013 32.156C61.3523 32.156 62.4963 30.882 62.4963 28.854C62.4963 26.813 61.3523 25.565 59.7013 25.565C58.8173 25.565 58.0373 26.02 57.5823 26.657V25.721H56.6073V34.392H57.5823V31.051ZM61.4693 28.854C61.4693 30.245 60.7153 31.285 59.4543 31.285C58.6873 31.285 57.9203 30.817 57.5823 30.271V27.437C57.9203 26.891 58.6873 26.436 59.4543 26.436C60.7153 26.436 61.4693 27.463 61.4693 28.854ZM66.9427 30.778C67.6577 31.584 68.7627 32.156 70.2707 32.156C72.6107 32.156 73.4687 30.869 73.4687 29.608C73.4687 27.788 71.8567 27.346 70.4397 26.969C69.3347 26.67 68.3337 26.41 68.3337 25.539C68.3337 24.72 69.0747 24.161 70.1147 24.161C71.0637 24.161 71.9737 24.486 72.6237 25.201L73.2737 24.408C72.5457 23.641 71.5187 23.199 70.1927 23.199C68.4897 23.199 67.2157 24.174 67.2157 25.604C67.2157 27.307 68.7627 27.697 70.1537 28.061C71.2977 28.373 72.3507 28.659 72.3507 29.699C72.3507 30.362 71.8567 31.194 70.3097 31.194C69.0877 31.194 68.1517 30.596 67.5797 29.959L66.9427 30.778ZM76.4111 32.156C76.9831 32.156 77.3341 31.987 77.5811 31.753L77.2951 31.025C77.1651 31.168 76.9051 31.285 76.6321 31.285C76.2031 31.285 75.9951 30.947 75.9951 30.479V26.579H77.2691V25.721H75.9951V24.005H75.0201V25.721H73.9801V26.579H75.0201V30.687C75.0201 31.623 75.4881 32.156 76.4111 32.156ZM81.3894 32.156C83.3004 32.156 84.4964 30.674 84.4964 28.854C84.4964 27.034 83.3004 25.565 81.3894 25.565C79.4784 25.565 78.2824 27.034 78.2824 28.854C78.2824 30.674 79.4784 32.156 81.3894 32.156ZM81.3894 31.285C80.0504 31.285 79.2964 30.141 79.2964 28.854C79.2964 27.58 80.0504 26.436 81.3894 26.436C82.7284 26.436 83.4694 27.58 83.4694 28.854C83.4694 30.141 82.7284 31.285 81.3894 31.285ZM87.0608 32V27.554C87.3468 27.047 88.1658 26.553 88.7638 26.553C88.9198 26.553 89.0368 26.566 89.1538 26.592V25.591C88.2958 25.591 87.5678 26.072 87.0608 26.735V25.721H86.0858V32H87.0608ZM90.0129 28.854C90.0129 30.817 91.3519 32.156 93.2109 32.156C94.2379 32.156 95.0829 31.818 95.7069 31.194L95.2389 30.557C94.7449 31.064 94.0169 31.35 93.3019 31.35C91.9499 31.35 91.1179 30.362 91.0399 29.179H96.1229V28.932C96.1229 27.047 95.0049 25.565 93.1069 25.565C91.3129 25.565 90.0129 27.034 90.0129 28.854ZM93.0939 26.371C94.5239 26.371 95.1479 27.528 95.1609 28.464H91.0399C91.0919 27.502 91.7549 26.371 93.0939 26.371ZM107.385 32L105.045 28.464C106.228 28.36 107.294 27.502 107.294 25.942C107.294 24.343 106.163 23.329 104.577 23.329H101.093V32H102.172V28.555H103.901L106.111 32H107.385ZM106.176 25.942C106.176 26.917 105.474 27.606 104.447 27.606H102.172V24.291H104.447C105.474 24.291 106.176 24.967 106.176 25.942ZM113.61 32V27.684C113.61 26.163 112.505 25.565 111.179 25.565C110.152 25.565 109.346 25.903 108.67 26.605L109.125 27.281C109.684 26.683 110.295 26.41 111.049 26.41C111.959 26.41 112.635 26.891 112.635 27.736V28.867C112.128 28.282 111.413 28.009 110.555 28.009C109.489 28.009 108.358 28.672 108.358 30.076C108.358 31.441 109.489 32.156 110.555 32.156C111.4 32.156 112.115 31.857 112.635 31.285V32H113.61ZM112.635 30.674C112.258 31.194 111.595 31.454 110.906 31.454C109.996 31.454 109.359 30.882 109.359 30.089C109.359 29.283 109.996 28.711 110.906 28.711C111.595 28.711 112.258 28.971 112.635 29.491V30.674ZM117.15 32.156C117.722 32.156 118.073 31.987 118.32 31.753L118.034 31.025C117.904 31.168 117.644 31.285 117.371 31.285C116.942 31.285 116.734 30.947 116.734 30.479V26.579H118.008V25.721H116.734V24.005H115.759V25.721H114.719V26.579H115.759V30.687C115.759 31.623 116.227 32.156 117.15 32.156ZM119.867 24.668C120.231 24.668 120.53 24.369 120.53 24.005C120.53 23.641 120.231 23.355 119.867 23.355C119.516 23.355 119.217 23.641 119.217 24.005C119.217 24.369 119.516 24.668 119.867 24.668ZM120.361 32V25.721H119.386V32H120.361ZM127.519 32V27.593C127.519 26.228 126.83 25.565 125.517 25.565C124.581 25.565 123.723 26.111 123.281 26.631V25.721H122.306V32H123.281V27.411C123.645 26.904 124.373 26.436 125.14 26.436C125.985 26.436 126.544 26.787 126.544 27.892V32H127.519ZM129.453 33.612C130.194 34.34 130.922 34.548 131.988 34.548C133.522 34.548 134.978 33.898 134.978 31.818V25.721H134.003V26.67C133.496 25.981 132.742 25.565 131.897 25.565C130.246 25.565 129.102 26.813 129.102 28.828C129.102 30.856 130.259 32.078 131.897 32.078C132.781 32.078 133.548 31.597 134.003 30.96V31.857C134.003 33.235 133.028 33.742 131.988 33.742C131.091 33.742 130.467 33.508 129.947 32.884L129.453 33.612ZM134.003 30.193C133.665 30.739 132.911 31.22 132.131 31.22C130.87 31.22 130.116 30.206 130.116 28.828C130.116 27.437 130.87 26.436 132.131 26.436C132.911 26.436 133.665 26.904 134.003 27.45V30.193ZM136.385 31.168C137.022 31.844 137.893 32.156 138.92 32.156C140.545 32.156 141.39 31.311 141.39 30.258C141.39 28.867 140.129 28.555 139.037 28.308C138.218 28.113 137.503 27.918 137.503 27.307C137.503 26.748 138.036 26.358 138.894 26.358C139.7 26.358 140.389 26.696 140.766 27.151L141.221 26.475C140.714 25.968 139.96 25.565 138.894 25.565C137.399 25.565 136.554 26.397 136.554 27.372C136.554 28.672 137.763 28.958 138.829 29.205C139.674 29.413 140.441 29.634 140.441 30.323C140.441 30.934 139.921 31.363 138.959 31.363C138.101 31.363 137.308 30.947 136.892 30.466L136.385 31.168Z" fill="white"/>
<path d="M57.875 8.09175L62 8.20244L58.7246 10.8406L59.8991 15L56.5 12.5402L53.1009 15L54.2754 10.8406L51 8.20139L55.125 8.09175L56.5 4L57.875 8.09175Z" fill="#FFF380"/>
<path d="M72.5 8.09175L77 8.20244L73.4269 10.8406L74.7081 15L71 12.5402L67.2919 15L68.5731 10.8406L65 8.20139L69.5 8.09175L71 4L72.5 8.09175Z" fill="#FFF380"/>
<path d="M86.875 8.09175L91 8.20244L87.7246 10.8406L88.8991 15L85.5 12.5402L82.1009 15L83.2754 10.8406L80 8.20139L84.125 8.09175L85.5 4L86.875 8.09175Z" fill="#FFF380"/>
<path d="M101.5 8.09175L106 8.20244L102.427 10.8406L103.708 15L100 12.5402L96.2919 15L97.5731 10.8406L94 8.20139L98.5 8.09175L100 4L101.5 8.09175Z" fill="#FFF380"/>
<path d="M115.875 8.09175L120 8.20244L116.725 10.8406L117.899 15L114.5 12.5402L111.101 15L112.275 10.8406L109 8.20139L113.125 8.09175L114.5 4L115.875 8.09175Z" fill="#FFF380"/>
<path d="M31.3808 15V12.296H32.8848V11.128H31.3808V4.328H29.5568L24.9808 11.192V12.296H30.0528V15H31.3808ZM30.0528 11.128H26.3088L30.0528 5.56V11.128ZM34.3506 14.28C34.3506 14.76 34.7506 15.16 35.2306 15.16C35.7106 15.16 36.1106 14.76 36.1106 14.28C36.1106 13.8 35.7106 13.4 35.2306 13.4C34.7506 13.4 34.3506 13.8 34.3506 14.28ZM38.4221 13.896C39.0941 14.664 40.0221 15.176 41.3821 15.176C44.3741 15.176 45.7181 12.552 45.7181 9.672C45.7181 6.76 44.5821 4.152 41.5901 4.152C39.2701 4.152 37.8621 5.8 37.8621 7.64C37.8621 9.912 39.4461 11.048 41.3661 11.048C42.7261 11.048 43.9101 10.12 44.3741 9.384C44.3901 9.528 44.3901 9.672 44.3901 9.816C44.3901 11.832 43.5421 13.992 41.3821 13.992C40.2781 13.992 39.6381 13.544 39.0941 12.904L38.4221 13.896ZM44.3261 8.312C43.7661 9.256 42.7261 9.896 41.6701 9.896C40.2941 9.896 39.2061 9.16 39.2061 7.592C39.2061 6.584 40.0221 5.336 41.6541 5.336C43.5101 5.336 44.2141 6.984 44.3261 8.312Z" fill="white"/>
</svg>
