<svg width="863" height="44" viewBox="0 0 863 44" fill="none" xmlns="http://www.w3.org/2000/svg">
<path d="M859.448 2.17603H827.387C826.448 2.18356 825.549 2.54157 824.884 3.17289C824.22 3.80421 823.843 4.65831 823.835 5.5511V10.6281H827.387V5.5511H859.448V29.2632H847V32.6383H859.448C860.391 32.6383 861.294 32.2826 861.96 31.6497C862.626 31.0168 863.001 30.1583 863.001 29.2632V5.5511C863.001 4.65597 862.626 3.79751 861.96 3.16456C861.294 2.53161 860.391 2.17603 859.448 2.17603ZM823.835 27.5612V32.6383H829.179C829.179 31.2918 828.616 30.0004 827.613 29.0482C826.611 28.0961 825.252 27.5612 823.835 27.5612ZM823.835 20.7822V24.1862C826.194 24.1862 828.457 25.0766 830.125 26.6617C831.794 28.2467 832.731 30.3966 832.731 32.6383H836.313C836.313 29.4938 834.999 26.4782 832.659 24.2548C830.318 22.0313 827.144 20.7822 823.835 20.7822ZM823.835 14.0321V17.4071C825.941 17.4033 828.028 17.7947 829.974 18.5587C831.921 19.3229 833.69 20.4446 835.179 21.8597C836.669 23.2749 837.849 24.9554 838.653 26.8051C839.458 28.6547 839.87 30.637 839.866 32.6383H843.418C843.418 27.7036 841.355 22.9711 837.682 19.4817C834.01 15.9924 829.029 14.0321 823.835 14.0321Z" fill="#898989"/>
<path d="M674.771 15.2828H672.165V12.4328H674.771V9.3391C674.771 4.73037 677.537 3.00342 680.588 3.00342C681.594 3.00342 682.834 3.20472 683.84 3.68148L683.109 6.53148C682.389 6.24542 681.669 6.0865 680.948 6.0865C679.147 6.0865 678.299 7.20954 678.299 9.21196V12.4222H683.152L682.23 15.2722H678.299V31.3974H674.771V15.2828Z" fill="#898989"/>
<path d="M685.885 6.25604C685.885 5.01645 686.807 4.00995 688.131 4.00995C689.498 4.00995 690.462 4.97407 690.462 6.25604C690.462 7.53801 689.456 8.54451 688.131 8.54451C686.807 8.53392 685.885 7.53801 685.885 6.25604Z" fill="#898989"/>
<path d="M689.932 12.4327H686.404V31.4079H689.932V12.4327Z" fill="#898989"/>
<path d="M693.386 12.4328H696.353L696.755 14.7637C698.758 12.6341 700.368 11.9561 702.095 11.9561C702.9 11.9561 703.78 12.1574 704.341 12.5176L703.091 15.643C702.487 15.3252 701.883 15.1663 701.29 15.1663C699.923 15.1663 698.684 15.8867 696.914 17.6137V31.4187H693.386V12.4328Z" fill="#898989"/>
<path d="M703.42 21.7774C703.42 16.0032 706.587 11.9454 711.44 11.9454C716.419 11.9454 719.301 15.7596 719.301 21.8198V22.6991H707.022C707.107 26.2696 709.268 28.9183 713.04 28.9183C714.841 28.9183 716.409 28.3567 717.733 27.6363L718.856 30.0837C717.087 31.2067 714.767 31.8106 712.595 31.8106C706.301 31.8106 703.42 27.1913 703.42 21.7774ZM715.657 20.0504C715.572 17.4017 714.29 14.753 711.44 14.753C708.706 14.753 707.064 17.1581 707.022 20.0504H715.657Z" fill="#898989"/>
<path d="M756.881 6.2667C754.232 14.7955 751.647 23.123 749.041 31.5141C748.066 31.5141 747.144 31.5141 746.021 31.5141C743.426 23.1972 740.809 14.7955 738.149 6.27729C739.071 6.27729 739.802 6.27729 740.66 6.27729C742.885 13.5029 745.121 20.7709 747.526 28.5899C749.941 20.8239 752.209 13.5665 754.476 6.2667C755.228 6.2667 755.959 6.2667 756.881 6.2667Z" fill="#898989"/>
<path d="M736.634 6.28781C736.338 7.05064 736.094 7.67573 735.808 8.40677C733 8.40677 730.235 8.40677 727.269 8.40677C727.269 16.1516 727.269 23.7692 727.269 31.4716C726.453 31.4716 725.828 31.4716 725.054 31.4716C725.054 23.8751 725.054 16.2999 725.054 8.52331C722.109 8.52331 719.301 8.52331 716.43 8.52331C716.144 7.69692 715.9 7.01885 715.646 6.28781C722.681 6.28781 729.557 6.28781 736.634 6.28781Z" fill="#898989"/>
<path fill-rule="evenodd" clip-rule="evenodd" d="M552.644 10.9172C553.69 10.9172 555.635 9.50067 558.165 9.50067C562.52 9.50067 564.232 12.5469 564.232 12.5469C564.232 12.5469 560.881 14.2315 560.881 18.3195C560.881 22.93 565.055 24.5186 565.055 24.5186C565.055 24.5186 562.137 32.5926 558.196 32.5926C556.387 32.5926 554.979 31.3924 553.072 31.3924C551.129 31.3924 549.2 32.6367 547.943 32.6367C544.346 32.6383 539.799 24.9785 539.799 18.8236C539.799 12.7617 543.647 9.58597 547.256 9.58597C549.603 9.58597 551.424 10.9172 552.644 10.9172ZM553.734 4.82624C555.77 2.18821 558.6 2.17603 558.6 2.17603C558.6 2.17603 559.021 4.65718 556.999 7.04542C554.839 9.59663 552.385 9.17777 552.385 9.17777C552.385 9.17777 551.925 7.17336 553.734 4.82624V4.82624ZM587.6 9.63014L592.853 23.623C593.297 24.7196 593.695 25.7523 594.045 26.721C594.395 27.6912 594.729 28.6462 595.047 29.5844H595.142C595.461 28.6782 595.803 27.7293 596.17 26.7438C596.535 25.7584 596.942 24.7181 597.386 23.6214L602.686 9.63014H605.075L595.953 32.1661H593.995L585.212 9.63014H587.6ZM577.57 4.65413V9.63166H583.921V11.4152H577.57V26.1117C577.57 27.615 577.816 28.7635 578.31 29.5631C578.804 30.3612 579.655 30.7587 580.865 30.7587C581.44 30.7587 581.933 30.7283 582.347 30.6658C582.703 30.6166 583.054 30.5381 583.397 30.4313L583.636 32.1219C582.872 32.4646 581.852 32.6383 580.579 32.6383C579.529 32.6383 578.662 32.4646 577.978 32.1204C577.314 31.7956 576.753 31.3008 576.354 30.6887C575.956 30.0794 575.677 29.3438 575.517 28.4832C575.352 27.5605 575.272 26.6251 575.278 25.6883V11.4167H571.506V9.63014H575.278V5.49641L577.57 4.65261V4.65413Z" fill="#898989"/>
<path d="M391.86 33.1287H382.158L374.438 22.4336H371.858V33.0998H363.311V1.05151H375.559C382.62 1.05151 388.385 5.85712 388.385 11.7673C388.385 15.3735 386.176 18.5924 382.813 20.5624L391.86 33.1328V33.1287ZM379.833 11.7673C379.837 11.0633 379.702 10.3655 379.436 9.71374C379.17 9.06197 378.778 8.46901 378.283 7.96875C377.788 7.46849 377.199 7.07074 376.55 6.79822C375.901 6.52571 375.204 6.38378 374.5 6.38054H371.858V17.0963H374.5C375.912 17.0898 377.264 16.5264 378.263 15.5285C379.261 14.5307 379.826 13.179 379.833 11.7673Z" fill="#898989"/>
<path d="M414.664 20.5583C414.677 23.1587 413.918 25.7045 412.483 27.8734C411.048 30.0422 409.002 31.7365 406.604 32.7418C404.206 33.7472 401.563 34.0182 399.011 33.5207C396.459 33.0232 394.111 31.7795 392.266 29.9471C390.421 28.1147 389.161 25.776 388.646 23.2271C388.131 20.6782 388.384 18.0337 389.372 15.6286C390.361 13.2235 392.041 11.1658 394.2 9.71616C396.359 8.2665 398.899 7.49005 401.5 7.48512C403.223 7.47699 404.931 7.80892 406.526 8.46192C408.121 9.11491 409.571 10.0761 410.794 11.2905C412.017 12.5049 412.988 13.9486 413.652 15.5389C414.316 17.1293 414.66 18.835 414.664 20.5583ZM401.5 13.6879C399.233 13.6879 397.321 16.7625 397.321 20.5583C397.321 24.3542 399.233 27.4288 401.5 27.4288C403.767 27.4288 405.728 24.3583 405.728 20.5625C405.728 16.7666 403.808 13.6879 401.5 13.6879Z" fill="#898989"/>
<path d="M434.727 8.01677L424.877 17.8711V7.97968H416.325V33.0999H424.877V22.8952L435.18 33.0834H445.937L432.856 20.0102L443.679 9.20787V24.1316C443.679 29.0773 446.65 33.6109 454.151 33.6109C457.704 33.6109 460.968 31.5914 462.551 29.7697L466.4 33.0669H468.222V8.01677H459.674V24.2594C458.714 25.9409 457.366 27.0001 455.297 27.0001C453.228 27.0001 452.227 25.7637 452.227 21.7618V8.01677H434.727Z" fill="#898989"/>
<path d="M470.299 9.18322C470.299 8.74599 470.473 8.32667 470.782 8.01751C471.091 7.70834 471.51 7.53465 471.948 7.53465C472.385 7.53465 472.804 7.70834 473.113 8.01751C473.422 8.32667 473.596 8.74599 473.596 9.18322C473.596 9.62045 473.422 10.0398 473.113 10.3489C472.804 10.6581 472.385 10.8318 471.948 10.8318C471.51 10.8318 471.091 10.6581 470.782 10.3489C470.473 10.0398 470.299 9.62045 470.299 9.18322ZM473.407 9.18322C473.409 8.99029 473.374 8.79874 473.301 8.6198C473.229 8.44086 473.122 8.27811 472.986 8.1411C472.85 8.00408 472.688 7.89555 472.51 7.82184C472.332 7.74814 472.141 7.71075 471.948 7.71187C471.755 7.71295 471.564 7.7521 471.386 7.8271C471.208 7.90209 471.047 8.01144 470.911 8.14889C470.775 8.28634 470.668 8.44918 470.596 8.62809C470.523 8.80699 470.487 8.99844 470.489 9.19147C470.486 9.38441 470.522 9.57595 470.594 9.75489C470.666 9.93384 470.773 10.0966 470.909 10.2336C471.045 10.3706 471.207 10.4791 471.385 10.5528C471.563 10.6266 471.755 10.6639 471.948 10.6628C472.141 10.6623 472.333 10.6233 472.512 10.5479C472.691 10.4726 472.853 10.3626 472.988 10.2241C473.124 10.0857 473.231 9.92164 473.303 9.74153C473.375 9.56143 473.41 9.36884 473.407 9.17498V9.18322ZM471.292 8.30124H472.051C472.422 8.30124 472.698 8.48258 472.698 8.8329C472.702 8.95043 472.666 9.06594 472.594 9.15931C472.523 9.25269 472.421 9.31803 472.306 9.34396L472.755 9.98278H472.364L471.952 9.40166H471.601V9.98278H471.292V8.30124ZM472.022 9.12552C472.24 9.12552 472.364 9.01012 472.364 8.84939C472.364 8.68865 472.24 8.57325 472.022 8.57325H471.61V9.12552H472.022Z" fill="#898989"/>
<path d="M268.981 11.277C268.372 11.277 267.855 11.4862 267.431 11.9045C267.006 12.3229 266.793 12.8249 266.793 13.4109V22.4072C266.793 23.0078 267.006 23.5163 267.431 23.9347C267.855 24.3531 268.372 24.5623 268.981 24.5623C269.589 24.5623 270.103 24.3532 270.521 23.9347C270.938 23.5164 271.147 23.0078 271.147 22.4072V13.4109C271.147 12.8249 270.935 12.3229 270.51 11.9045C270.086 11.4862 269.576 11.277 268.981 11.277Z" fill="#898989"/>
<path d="M286.567 3.20077L288.075 0.46046C288.174 0.27904 288.139 0.139922 287.969 0.0420991C287.785 -0.0422529 287.643 0.000489604 287.544 0.167305L286.015 2.92952C284.67 2.34352 283.247 2.04999 281.746 2.04999C280.245 2.04999 278.822 2.34359 277.477 2.92952L275.948 0.167305C275.848 0.000489604 275.707 -0.0418753 275.523 0.0420991C275.353 0.140363 275.318 0.27904 275.417 0.46046L276.925 3.20077C275.396 3.96894 274.178 5.03876 273.272 6.41254C272.366 7.78711 271.913 9.28923 271.913 10.9215H291.558C291.558 9.2896 291.105 7.78743 290.199 6.41254C289.292 5.03876 288.082 3.96894 286.567 3.20077ZM277.848 7.18657C277.685 7.34761 277.491 7.42774 277.264 7.42774C277.037 7.42774 276.846 7.34761 276.691 7.18657C276.535 7.02632 276.457 6.83522 276.457 6.6114C276.457 6.38838 276.535 6.19691 276.691 6.03623C276.846 5.87598 277.038 5.79586 277.264 5.79586C277.491 5.79586 277.685 5.87598 277.848 6.03623C278.011 6.19728 278.093 6.38838 278.093 6.6114C278.092 6.83485 278.011 7.02632 277.848 7.18657ZM286.8 7.18657C286.644 7.34761 286.453 7.42774 286.227 7.42774C286 7.42774 285.805 7.34761 285.643 7.18657C285.48 7.02632 285.398 6.83522 285.398 6.6114C285.398 6.38838 285.48 6.19691 285.643 6.03623C285.805 5.87598 286 5.79586 286.227 5.79586C286.453 5.79586 286.644 5.87598 286.8 6.03623C286.956 6.19728 287.034 6.38838 287.034 6.6114C287.034 6.83485 286.956 7.02632 286.8 7.18657Z" fill="#898989"/>
<path d="M271.997 25.6082C271.997 26.2504 272.223 26.794 272.676 27.2401C273.13 27.6862 273.682 27.9093 274.333 27.9093H275.905L275.926 32.659C275.926 33.2588 276.139 33.7682 276.563 34.1866C276.988 34.605 277.498 34.8142 278.092 34.8142C278.701 34.8142 279.218 34.605 279.643 34.1866C280.068 33.7682 280.28 33.2589 280.28 32.659V27.9097H283.211V32.659C283.211 33.2588 283.423 33.7682 283.848 34.1866C284.273 34.605 284.789 34.8142 285.398 34.8142C286.007 34.8142 286.524 34.605 286.948 34.1866C287.373 33.7682 287.585 33.2589 287.585 32.659V27.9097H289.178C289.815 27.9097 290.36 27.6867 290.814 27.2405C291.267 26.7944 291.493 26.2507 291.493 25.6086V11.6741H271.997V25.6082Z" fill="#898989"/>
<path d="M294.51 11.277C293.915 11.277 293.406 11.4831 292.981 11.8941C292.556 12.306 292.344 12.8119 292.344 13.4109V22.4072C292.344 23.0078 292.556 23.5163 292.981 23.9347C293.406 24.3532 293.916 24.5623 294.51 24.5623C295.119 24.5623 295.636 24.3532 296.06 23.9347C296.485 23.5163 296.698 23.0078 296.698 22.4072V13.4109C296.698 12.8118 296.485 12.306 296.06 11.8941C295.636 11.4831 295.119 11.277 294.51 11.277Z" fill="#898989"/>
<path d="M176.804 2.17603C172.221 2.17603 168.497 5.89997 168.497 10.4839V24.3304C168.497 28.9143 172.221 32.6383 176.804 32.6383H190.651C195.235 32.6383 198.959 28.9143 198.959 24.3304V10.4839C198.959 5.89997 195.235 2.17603 190.651 2.17603H176.804ZM174.465 12.6096C174.949 12.6096 175.309 12.9557 175.309 13.4128C175.309 13.8617 174.949 14.2079 174.465 14.2079C173.973 14.2079 173.613 13.8617 173.613 13.4128C173.613 12.9557 173.973 12.6096 174.465 12.6096ZM181.678 13.0044C184.204 13.0044 185.761 14.7677 185.761 17.6019C185.761 20.4252 184.22 22.2047 181.678 22.2047C179.122 22.2047 177.573 20.4333 177.573 17.6019C177.573 14.7622 179.157 13.0044 181.678 13.0044ZM190.629 13.0044C192.409 13.0044 193.71 14.0429 193.793 15.5249H192.466C192.333 14.7136 191.633 14.2079 190.608 14.2079C189.529 14.2079 188.815 14.7217 188.815 15.5168C188.815 16.1388 189.274 16.5012 190.424 16.7689L191.387 17.0069C193.193 17.4288 193.931 18.1562 193.931 19.476C193.931 21.1608 192.631 22.2101 190.545 22.2101C188.601 22.2101 187.292 21.2095 187.197 19.6356H188.547C188.666 20.4685 189.48 20.9986 190.651 20.9986C191.744 20.9986 192.547 20.4333 192.547 19.6491C192.547 18.9865 192.044 18.5836 190.878 18.3077L189.742 18.0373C188.157 17.664 187.43 16.896 187.43 15.6087C187.43 14.0429 188.712 13.0044 190.629 13.0044ZM181.678 14.27C180.023 14.27 178.971 15.5655 178.971 17.6019C178.971 19.6302 179.988 20.9364 181.678 20.9364C183.346 20.9364 184.371 19.6302 184.371 17.6019C184.371 15.5655 183.346 14.27 181.678 14.27ZM173.813 15.3735H175.117V21.9965H173.813V15.3735Z" fill="#898989"/>
<path d="M0.912 23.8231C2.232 25.3111 4.272 26.3671 7.056 26.3671C11.376 26.3671 12.96 23.9911 12.96 21.6631C12.96 18.3031 9.984 17.4871 7.368 16.7911C5.328 16.2391 3.48 15.7591 3.48 14.1511C3.48 12.6391 4.848 11.6071 6.768 11.6071C8.52 11.6071 10.2 12.2071 11.4 13.5271L12.6 12.0631C11.256 10.6471 9.36 9.8311 6.912 9.8311C3.768 9.8311 1.416 11.6311 1.416 14.2711C1.416 17.4151 4.272 18.1351 6.84 18.8071C8.952 19.3831 10.896 19.9111 10.896 21.8311C10.896 23.0551 9.984 24.5911 7.128 24.5911C4.872 24.5911 3.144 23.4871 2.088 22.3111L0.912 23.8231ZM21.7459 26.0791V11.8471H26.8339V10.0711H14.6899V11.8471H19.7539V26.0791H21.7459ZM41.0974 26.0791L36.7774 19.5511C38.9614 19.3591 40.9294 17.7751 40.9294 14.8951C40.9294 11.9431 38.8414 10.0711 35.9134 10.0711H29.4814V26.0791H31.4734V19.7191H34.6654L38.7454 26.0791H41.0974ZM38.8654 14.8951C38.8654 16.6951 37.5694 17.9671 35.6734 17.9671H31.4734V11.8471H35.6734C37.5694 11.8471 38.8654 13.0951 38.8654 14.8951ZM54.5709 26.0791V24.3031H46.0749V18.7831H54.4029V17.0071H46.0749V11.8471H54.5709V10.0711H44.0829V26.0791H54.5709ZM71.451 26.0791L64.995 10.0711H62.523L56.091 26.0791H58.299L59.715 22.5271H67.827L69.243 26.0791H71.451ZM67.227 20.7511H60.291L63.771 11.8471L67.227 20.7511ZM89.2159 26.0791V10.0711H86.3599L81.3679 22.2631L76.3999 10.0711H73.5439V26.0791H75.5359V12.7591L80.9599 26.0791H81.7759L87.2239 12.7591V26.0791H89.2159ZM98.4896 18.0871C98.4896 22.8151 101.682 26.3671 106.434 26.3671C111.162 26.3671 114.378 22.8151 114.378 18.0871C114.378 13.3591 111.162 9.8071 106.434 9.8071C101.682 9.8071 98.4896 13.3591 98.4896 18.0871ZM112.314 18.0871C112.314 21.8071 110.01 24.5911 106.434 24.5911C102.834 24.5911 100.554 21.8071 100.554 18.0871C100.554 14.3431 102.834 11.5831 106.434 11.5831C110.01 11.5831 112.314 14.3431 112.314 18.0871ZM130.737 26.0791V10.0711H128.745V22.7191L119.529 10.0711H117.489V26.0791H119.481V13.1671L128.817 26.0791H130.737Z" fill="white"/>
</svg>
